<svg xmlns="http://www.w3.org/2000/svg" xmlns:xlink="http://www.w3.org/1999/xlink" width="24" height="24" preserveAspectRatio="xMidYMid meet" viewBox="0 0 24 24" style="-ms-transform: rotate(360deg); -webkit-transform: rotate(360deg); transform: rotate(360deg);"><path d="M21.3 14.58l-2.45-9.16s-.15-.59-.72-.33l-5.6 2.6l.86 3.2l1.09 4.08l.01.06c.05.47-.41.79-.41.79l-1.88.87l.5 1.89l.04.1c.07.17.28.6.81.91l6.95 4.27s.68.41.52-.17l-1.98-7.4l1.86-.86s.56-.26.4-.85zm-7.54.09l-.01-.06l-1.13-4.22l-.66-2.45l-.67-2.49v-.04s-.16-.59-.84-1L3.5.14s-.68-.41-.52.17l1.99 7.42l-1.87.87s-.56.26-.4.85l2.45 9.16s.16.59.72.33l6.17-2.87l1.3-.61s.52-.24.42-.79z" fill="#626262"/><rect x="0" y="0" width="24" height="24" fill="rgba(0, 0, 0, 0)" /></svg>